{
    "asset" : {
        "generator" : "Khronos glTF Blender I/O v1.2.75",
        "version" : "2.0"
    },
    "scene" : 0,
    "scenes" : [
        {
            "name" : "Scene",
            "nodes" : [
                8,
                12,
                16,
                17,
                18
            ]
        }
    ],
    "nodes" : [
        {
            "mesh" : 0,
            "name" : "christmass_ball_inside_0"
        },
        {
            "mesh" : 1,
            "name" : "christmass_ball_ouline_0"
        },
        {
            "children" : [
                0,
                1
            ],
            "name" : "christmass_ball",
            "rotation" : [
                -0.7071068286895752,
                0,
                0,
                0.7071067094802856
            ],
            "scale" : [
                250.6417694091797,
                250.6417694091797,
                250.6417694091797
            ],
            "translation" : [
                0.7692310810089111,
                -89.4625473022461,
                -35.418739318847656
            ]
        },
        {
            "mesh" : 2,
            "name" : "glass_glass_0"
        },
        {
            "children" : [
                3
            ],
            "name" : "glass",
            "rotation" : [
                -0.7071068286895752,
                0,
                0,
                0.7071067094802856
            ],
            "scale" : [
                250.6417694091797,
                250.6417694091797,
                250.6417694091797
            ],
            "translation" : [
                0.7692310810089111,
                186.243408203125,
                -35.418739318847656
            ]
        },
        {
            "children" : [
                2,
                4
            ],
            "name" : "RootNode"
        },
        {
            "children" : [
                5
            ],
            "name" : "1ede5b84306949a9837286afc5f7cea4.fbx",
            "rotation" : [
                0.7071068286895752,
                0,
                0,
                0.7071068286895752
            ]
        },
        {
            "children" : [
                6
            ],
            "name" : "RootNode (model correction matrix)"
        },
        {
            "children" : [
                7
            ],
            "name" : "RootNode (gltf orientation matrix)",
            "rotation" : [
                -0.7071067690849304,
                0,
                0,
                0.7071067690849304
            ],
            "scale" : [
                2.5663304328918457,
                2.5663304328918457,
                2.5663304328918457
            ],
            "translation" : [
                0.7109560966491699,
                -58.11521911621094,
                -30.273231506347656
            ]
        },
        {
            "name" : "Node_3"
        },
        {
            "children" : [
                9
            ],
            "name" : "9a9c92783eaf493b8ece599882a2a338.obj.cleaner.gles",
            "translation" : [
                -1.6749000549316406,
                -0.26759999990463257,
                -0.20000000298023224
            ]
        },
        {
            "children" : [
                10
            ],
            "name" : "RootNode (model correction matrix).001"
        },
        {
            "children" : [
                11
            ],
            "name" : "RootNode (gltf orientation matrix).001",
            "rotation" : [
                -0.7071067690849304,
                0,
                0,
                0.7071067690849304
            ],
            "scale" : [
                2.5663304328918457,
                2.5663304328918457,
                2.5663304328918457
            ],
            "translation" : [
                0.7109560966491699,
                -58.11521911621094,
                -30.273231506347656
            ]
        },
        {
            "name" : "Node_3.001"
        },
        {
            "children" : [
                13
            ],
            "name" : "9a9c92783eaf493b8ece599882a2a338.obj.cleaner.gles.001",
            "translation" : [
                -1.6749000549316406,
                -0.26759999990463257,
                -0.20000000298023224
            ]
        },
        {
            "children" : [
                14
            ],
            "name" : "RootNode (model correction matrix).002"
        },
        {
            "children" : [
                15
            ],
            "name" : "RootNode (gltf orientation matrix).002",
            "rotation" : [
                -0.7071067690849304,
                0,
                0,
                0.7071067690849304
            ],
            "scale" : [
                2.5663304328918457,
                2.5663304328918457,
                2.5663304328918457
            ],
            "translation" : [
                0.7109560966491699,
                -58.11521911621094,
                -30.273231506347656
            ]
        },
        {
            "mesh" : 3,
            "name" : "ryan.001",
            "scale" : [
                2.949364423751831,
                2.949364423751831,
                2.949364423751831
            ],
            "translation" : [
                -129.99594116210938,
                60.7771110534668,
                305.1734619140625
            ]
        },
        {
            "mesh" : 4,
            "name" : "Plane",
            "scale" : [
                6.432296276092529,
                6.432296276092529,
                6.432296276092529
            ],
            "translation" : [
                2.6850574016571045,
                -287.7057189941406,
                -121.16943359375
            ]
        }
    ],
    "materials" : [
        {
            "doubleSided" : true,
            "emissiveFactor" : [
                1,
                1,
                1
            ],
            "emissiveTexture" : {
                "index" : 0,
                "texCoord" : 0
            },
            "name" : "inside",
            "normalTexture" : {
                "index" : 1,
                "texCoord" : 0
            },
            "occlusionTexture" : {
                "index" : 2,
                "texCoord" : 0
            },
            "pbrMetallicRoughness" : {
                "baseColorTexture" : {
                    "index" : 3,
                    "texCoord" : 0
                },
                "metallicRoughnessTexture" : {
                    "index" : 2,
                    "texCoord" : 0
                }
            }
        },
        {
            "emissiveFactor" : [
                0,
                0,
                0
            ],
            "name" : "ouline",
            "pbrMetallicRoughness" : {
                "baseColorFactor" : [
                    0,
                    0,
                    0,
                    1
                ],
                "metallicFactor" : 0,
                "roughnessFactor" : 1
            }
        },
        {
            "alphaMode" : "BLEND",
            "emissiveFactor" : [
                0,
                0,
                0
            ],
            "name" : "glass",
            "normalTexture" : {
                "index" : 4,
                "scale" : 0,
                "texCoord" : 0
            },
            "pbrMetallicRoughness" : {
                "baseColorFactor" : [
                    0.8256638050079346,
                    1,
                    0.9656438231468201,
                    0.3126905560493469
                ],
                "baseColorTexture" : {
                    "index" : 5,
                    "texCoord" : 0
                },
                "metallicFactor" : 1,
                "roughnessFactor" : 0
            }
        },
        {
            "doubleSided" : true,
            "emissiveFactor" : [
                0,
                0,
                0
            ],
            "name" : "Material.004",
            "pbrMetallicRoughness" : {
                "baseColorFactor" : [
                    0.800000011920929,
                    0.800000011920929,
                    0.800000011920929,
                    1
                ],
                "metallicFactor" : 0,
                "roughnessFactor" : 0.4000000059604645
            }
        },
        {
            "doubleSided" : true,
            "emissiveFactor" : [
                0,
                0,
                0
            ],
            "name" : "Material.003",
            "pbrMetallicRoughness" : {
                "baseColorFactor" : [
                    0,
                    0,
                    0,
                    1
                ],
                "metallicFactor" : 0,
                "roughnessFactor" : 0.5
            }
        },
        {
            "doubleSided" : true,
            "emissiveFactor" : [
                0,
                0,
                0
            ],
            "name" : "Material.001",
            "pbrMetallicRoughness" : {
                "baseColorFactor" : [
                    0.8000000715255737,
                    0.496053010225296,
                    0.21561625599861145,
                    1
                ],
                "metallicFactor" : 0,
                "roughnessFactor" : 0.5
            }
        },
        {
            "alphaMode" : "BLEND",
            "doubleSided" : true,
            "emissiveFactor" : [
                0,
                0,
                0
            ],
            "name" : "poster2",
            "pbrMetallicRoughness" : {
                "baseColorTexture" : {
                    "index" : 6,
                    "texCoord" : 0
                },
                "metallicFactor" : 0,
                "roughnessFactor" : 0.5
            }
        }
    ],
    "meshes" : [
        {
            "name" : "christmass_ball_inside_0",
            "primitives" : [
                {
                    "attributes" : {
                        "POSITION" : 0,
                        "NORMAL" : 1,
                        "TEXCOORD_0" : 2,
                        "TEXCOORD_1" : 3,
                        "TEXCOORD_2" : 4
                    },
                    "indices" : 5,
                    "material" : 0
                }
            ]
        },
        {
            "name" : "christmass_ball_ouline_0",
            "primitives" : [
                {
                    "attributes" : {
                        "POSITION" : 6,
                        "NORMAL" : 7,
                        "TEXCOORD_0" : 8
                    },
                    "indices" : 9,
                    "material" : 1
                }
            ]
        },
        {
            "name" : "glass_glass_0",
            "primitives" : [
                {
                    "attributes" : {
                        "POSITION" : 10,
                        "NORMAL" : 11,
                        "TEXCOORD_0" : 12,
                        "TEXCOORD_1" : 13,
                        "TEXCOORD_2" : 14
                    },
                    "indices" : 15,
                    "material" : 2
                }
            ]
        },
        {
            "name" : "ryan.001",
            "primitives" : [
                {
                    "attributes" : {
                        "POSITION" : 16,
                        "NORMAL" : 17,
                        "TEXCOORD_0" : 18
                    },
                    "indices" : 19,
                    "material" : 3
                },
                {
                    "attributes" : {
                        "POSITION" : 20,
                        "NORMAL" : 21,
                        "TEXCOORD_0" : 22
                    },
                    "indices" : 23,
                    "material" : 4
                },
                {
                    "attributes" : {
                        "POSITION" : 24,
                        "NORMAL" : 25,
                        "TEXCOORD_0" : 26
                    },
                    "indices" : 27,
                    "material" : 5
                }
            ]
        },
        {
            "name" : "Plane.003",
            "primitives" : [
                {
                    "attributes" : {
                        "POSITION" : 28,
                        "NORMAL" : 29,
                        "TEXCOORD_0" : 30
                    },
                    "indices" : 31,
                    "material" : 6
                }
            ]
        }
    ],
    "textures" : [
        {
            "source" : 0
        },
        {
            "source" : 1
        },
        {
            "source" : 2
        },
        {
            "source" : 3
        },
        {
            "source" : 4
        },
        {
            "source" : 5
        },
        {
            "sampler" : 0,
            "source" : 6
        }
    ],
    "images" : [
        {
            "mimeType" : "image/png",
            "name" : "inside_emissive",
            "uri" : "inside_emissive.png"
        },
        {
            "mimeType" : "image/png",
            "name" : "inside_normal",
            "uri" : "inside_normal.png"
        },
        {
            "mimeType" : "image/png",
            "name" : "inside_metallicRoughness",
            "uri" : "inside_metallicRoughness.png"
        },
        {
            "mimeType" : "image/png",
            "name" : "inside_baseColor",
            "uri" : "inside_baseColor.png"
        },
        {
            "mimeType" : "image/png",
            "name" : "glass_normal",
            "uri" : "glass_normal.png"
        },
        {
            "mimeType" : "image/png",
            "name" : "glass_baseColor",
            "uri" : "glass_baseColor.png"
        },
        {
            "mimeType" : "image/png",
            "name" : "\ub85c\uace0",
            "uri" : "%EB%A1%9C%EA%B3%A0.png"
        }
    ],
    "accessors" : [
        {
            "bufferView" : 0,
            "componentType" : 5126,
            "count" : 18877,
            "max" : [
                0.8736203908920288,
                0.8909692764282227,
                1.8114356994628906
            ],
            "min" : [
                -0.8736203908920288,
                -0.9120743870735168,
                -3.424422345688072e-08
            ],
            "type" : "VEC3"
        },
        {
            "bufferView" : 1,
            "componentType" : 5126,
            "count" : 18877,
            "type" : "VEC3"
        },
        {
            "bufferView" : 2,
            "componentType" : 5126,
            "count" : 18877,
            "type" : "VEC2"
        },
        {
            "bufferView" : 3,
            "componentType" : 5126,
            "count" : 18877,
            "type" : "VEC2"
        },
        {
            "bufferView" : 4,
            "componentType" : 5126,
            "count" : 18877,
            "type" : "VEC2"
        },
        {
            "bufferView" : 5,
            "componentType" : 5123,
            "count" : 70377,
            "type" : "SCALAR"
        },
        {
            "bufferView" : 6,
            "componentType" : 5126,
            "count" : 17099,
            "max" : [
                0.877620279788971,
                0.8949577808380127,
                1.815214991569519
            ],
            "min" : [
                -0.8776203989982605,
                -0.9153697490692139,
                -3.424422345688072e-08
            ],
            "type" : "VEC3"
        },
        {
            "bufferView" : 7,
            "componentType" : 5126,
            "count" : 17099,
            "type" : "VEC3"
        },
        {
            "bufferView" : 8,
            "componentType" : 5126,
            "count" : 17099,
            "type" : "VEC2"
        },
        {
            "bufferView" : 9,
            "componentType" : 5123,
            "count" : 70377,
            "type" : "SCALAR"
        },
        {
            "bufferView" : 10,
            "componentType" : 5126,
            "count" : 1364,
            "max" : [
                1,
                0.9999999403953552,
                1
            ],
            "min" : [
                -0.9999999403953552,
                -0.9999999403953552,
                -1
            ],
            "type" : "VEC3"
        },
        {
            "bufferView" : 11,
            "componentType" : 5126,
            "count" : 1364,
            "type" : "VEC3"
        },
        {
            "bufferView" : 12,
            "componentType" : 5126,
            "count" : 1364,
            "type" : "VEC2"
        },
        {
            "bufferView" : 13,
            "componentType" : 5126,
            "count" : 1364,
            "type" : "VEC2"
        },
        {
            "bufferView" : 14,
            "componentType" : 5126,
            "count" : 1364,
            "type" : "VEC2"
        },
        {
            "bufferView" : 15,
            "componentType" : 5123,
            "count" : 7680,
            "type" : "SCALAR"
        },
        {
            "bufferView" : 16,
            "componentType" : 5126,
            "count" : 4809,
            "max" : [
                68.76016998291016,
                40.836181640625,
                -29.028738021850586
            ],
            "min" : [
                52.40015411376953,
                8.247971534729004,
                -42.109619140625
            ],
            "type" : "VEC3"
        },
        {
            "bufferView" : 17,
            "componentType" : 5126,
            "count" : 4809,
            "type" : "VEC3"
        },
        {
            "bufferView" : 18,
            "componentType" : 5126,
            "count" : 4809,
            "type" : "VEC2"
        },
        {
            "bufferView" : 19,
            "componentType" : 5123,
            "count" : 4809,
            "type" : "SCALAR"
        },
        {
            "bufferView" : 20,
            "componentType" : 5126,
            "count" : 3972,
            "max" : [
                72.00173950195312,
                48.25997543334961,
                -29.51435661315918
            ],
            "min" : [
                49.15858840942383,
                38.654354095458984,
                -36.826393127441406
            ],
            "type" : "VEC3"
        },
        {
            "bufferView" : 21,
            "componentType" : 5126,
            "count" : 3972,
            "type" : "VEC3"
        },
        {
            "bufferView" : 22,
            "componentType" : 5126,
            "count" : 3972,
            "type" : "VEC2"
        },
        {
            "bufferView" : 23,
            "componentType" : 5123,
            "count" : 3972,
            "type" : "SCALAR"
        },
        {
            "bufferView" : 24,
            "componentType" : 5126,
            "count" : 66903,
            "max" : [
                78.7364501953125,
                58.32280349731445,
                -31.10637092590332
            ],
            "min" : [
                42.42387390136719,
                -4.274828910827637,
                -67.15132904052734
            ],
            "type" : "VEC3"
        },
        {
            "bufferView" : 25,
            "componentType" : 5126,
            "count" : 66903,
            "type" : "VEC3"
        },
        {
            "bufferView" : 26,
            "componentType" : 5126,
            "count" : 66903,
            "type" : "VEC2"
        },
        {
            "bufferView" : 27,
            "componentType" : 5125,
            "count" : 66903,
            "type" : "SCALAR"
        },
        {
            "bufferView" : 28,
            "componentType" : 5126,
            "count" : 4,
            "max" : [
                26.379369735717773,
                21.873188018798828,
                88.83103942871094
            ],
            "min" : [
                -25.056102752685547,
                3.955918312072754,
                78.90045166015625
            ],
            "type" : "VEC3"
        },
        {
            "bufferView" : 29,
            "componentType" : 5126,
            "count" : 4,
            "type" : "VEC3"
        },
        {
            "bufferView" : 30,
            "componentType" : 5126,
            "count" : 4,
            "type" : "VEC2"
        },
        {
            "bufferView" : 31,
            "componentType" : 5123,
            "count" : 6,
            "type" : "SCALAR"
        }
    ],
    "bufferViews" : [
        {
            "buffer" : 0,
            "byteLength" : 226524,
            "byteOffset" : 0
        },
        {
            "buffer" : 0,
            "byteLength" : 226524,
            "byteOffset" : 226524
        },
        {
            "buffer" : 0,
            "byteLength" : 151016,
            "byteOffset" : 453048
        },
        {
            "buffer" : 0,
            "byteLength" : 151016,
            "byteOffset" : 604064
        },
        {
            "buffer" : 0,
            "byteLength" : 151016,
            "byteOffset" : 755080
        },
        {
            "buffer" : 0,
            "byteLength" : 140754,
            "byteOffset" : 906096
        },
        {
            "buffer" : 0,
            "byteLength" : 205188,
            "byteOffset" : 1046852
        },
        {
            "buffer" : 0,
            "byteLength" : 205188,
            "byteOffset" : 1252040
        },
        {
            "buffer" : 0,
            "byteLength" : 136792,
            "byteOffset" : 1457228
        },
        {
            "buffer" : 0,
            "byteLength" : 140754,
            "byteOffset" : 1594020
        },
        {
            "buffer" : 0,
            "byteLength" : 16368,
            "byteOffset" : 1734776
        },
        {
            "buffer" : 0,
            "byteLength" : 16368,
            "byteOffset" : 1751144
        },
        {
            "buffer" : 0,
            "byteLength" : 10912,
            "byteOffset" : 1767512
        },
        {
            "buffer" : 0,
            "byteLength" : 10912,
            "byteOffset" : 1778424
        },
        {
            "buffer" : 0,
            "byteLength" : 10912,
            "byteOffset" : 1789336
        },
        {
            "buffer" : 0,
            "byteLength" : 15360,
            "byteOffset" : 1800248
        },
        {
            "buffer" : 0,
            "byteLength" : 57708,
            "byteOffset" : 1815608
        },
        {
            "buffer" : 0,
            "byteLength" : 57708,
            "byteOffset" : 1873316
        },
        {
            "buffer" : 0,
            "byteLength" : 38472,
            "byteOffset" : 1931024
        },
        {
            "buffer" : 0,
            "byteLength" : 9618,
            "byteOffset" : 1969496
        },
        {
            "buffer" : 0,
            "byteLength" : 47664,
            "byteOffset" : 1979116
        },
        {
            "buffer" : 0,
            "byteLength" : 47664,
            "byteOffset" : 2026780
        },
        {
            "buffer" : 0,
            "byteLength" : 31776,
            "byteOffset" : 2074444
        },
        {
            "buffer" : 0,
            "byteLength" : 7944,
            "byteOffset" : 2106220
        },
        {
            "buffer" : 0,
            "byteLength" : 802836,
            "byteOffset" : 2114164
        },
        {
            "buffer" : 0,
            "byteLength" : 802836,
            "byteOffset" : 2917000
        },
        {
            "buffer" : 0,
            "byteLength" : 535224,
            "byteOffset" : 3719836
        },
        {
            "buffer" : 0,
            "byteLength" : 267612,
            "byteOffset" : 4255060
        },
        {
            "buffer" : 0,
            "byteLength" : 48,
            "byteOffset" : 4522672
        },
        {
            "buffer" : 0,
            "byteLength" : 48,
            "byteOffset" : 4522720
        },
        {
            "buffer" : 0,
            "byteLength" : 32,
            "byteOffset" : 4522768
        },
        {
            "buffer" : 0,
            "byteLength" : 12,
            "byteOffset" : 4522800
        }
    ],
    "samplers" : [
        {
            "magFilter" : 9729,
            "minFilter" : 9986
        }
    ],
    "buffers" : [
        {
            "byteLength" : 4522812,
            "uri" : "rionenv.bin"
        }
    ]
}
